HIERARCHY
ROOT Hips
{
	OFFSET 0 0 0
	CHANNELS 6 Xposition Yposition Zposition Xrotation Yrotation Zrotation
	JOINT LeftHandThumb1
	{
		OFFSET 1.78 -1.1 1.54
		CHANNELS 3 Xrotation Yrotation Zrotation
		JOINT LeftHandThumb2
		{
			OFFSET 3.18423 0 0
			CHANNELS 3 Xrotation Yrotation Zrotation
			JOINT LeftHandThumb3
			{
				OFFSET 3.62493 0 0
				CHANNELS 3 Xrotation Yrotation Zrotation
				JOINT LeftHandThumb4
				{
					OFFSET 2.65828 0 0
					CHANNELS 3 Xrotation Yrotation Zrotation
					End Site
					{
						OFFSET -0 0 0
					}
				}
			}
		}
	}
	JOINT LeftHandIndex1
	{
		OFFSET 7.4475 0.841835 3.96155
		CHANNELS 3 Xrotation Yrotation Zrotation
		JOINT LeftHandIndex2
		{
			OFFSET 4.09997 0 0
			CHANNELS 3 Xrotation Yrotation Zrotation
			JOINT LeftHandIndex3
			{
				OFFSET 1.88792 0 0
				CHANNELS 3 Xrotation Yrotation Zrotation
				JOINT LeftHandIndex4
				{
					OFFSET 1.76905 0 0
					CHANNELS 3 Xrotation Yrotation Zrotation
					End Site
					{
						OFFSET -0 0 0
					}
				}
			}
		}
	}
	JOINT LeftHandMiddle1
	{
		OFFSET 8.15202 0.976627 0.886065
		CHANNELS 3 Xrotation Yrotation Zrotation
		JOINT LeftHandMiddle2
		{
			OFFSET 4.6 0 0
			CHANNELS 3 Xrotation Yrotation Zrotation
			JOINT LeftHandMiddle3
			{
				OFFSET 2.00908 0 0
				CHANNELS 3 Xrotation Yrotation Zrotation
				JOINT LeftHandMiddle4
				{
					OFFSET 1.47333 0 0
					CHANNELS 3 Xrotation Yrotation Zrotation
					End Site
					{
						OFFSET -0 0 0
					}
				}
			}
		}
	}
	JOINT LeftHandRing1
	{
		OFFSET 7.18367 0.497501 -1.72915
		CHANNELS 3 Xrotation Yrotation Zrotation
		JOINT LeftHandRing2
		{
			OFFSET 4.36337 0 0
			CHANNELS 3 Xrotation Yrotation Zrotation
			JOINT LeftHandRing3
			{
				OFFSET 2.36208 0 0
				CHANNELS 3 Xrotation Yrotation Zrotation
				JOINT LeftHandRing4
				{
					OFFSET 1.73219 0 0
					CHANNELS 3 Xrotation Yrotation Zrotation
					End Site
					{
						OFFSET -0 0 0
					}
				}
			}
		}
	}
	JOINT LeftHandPinky1
	{
		OFFSET 7.41209 -0.417872 -3.72321
		CHANNELS 3 Xrotation Yrotation Zrotation
		JOINT LeftHandPinky2
		{
			OFFSET 2.81501 0 0
			CHANNELS 3 Xrotation Yrotation Zrotation
			JOINT LeftHandPinky3
			{
				OFFSET 2.01927 0 0
				CHANNELS 3 Xrotation Yrotation Zrotation
				JOINT LeftHandPinky4
				{
					OFFSET 1.19603 0 0
					CHANNELS 3 Xrotation Yrotation Zrotation
					End Site
					{
						OFFSET -0 0 0
					}
				}
			}
		}
	}
}
MOTION
Frames: 22
Frame Time: 0.00833333
26.49128723 23.63041534 16.95266266 84.17238031 -47.51036143 62.11232193 -52.41543015 -28.35548481 -48.07236578 0.00000001 -7.80499007 0.00000021 0.00000006 -15.90691067 0.00000044 -0 0 0 -10.19031491 -3.24964585 4.32854791 -0 0 0.28818618 -0 0 8.6137349 -0 0 0 -2.052568 2.27368923 9.19791384 -0 0 0.03920748 -0 0 11.8083604 -0 0 0 -2.50636613 14.38060701 6.82245788 -0 0 0.93379591 -0 0 24.41240841 -0 0 0 -5.85121251 32.85615886 10.8799884 -0 0 0.42782558 -0 0 4.01189719 -0 0 0
26.49202576 23.59576721 16.94790802 84.22593912 -47.31062982 62.1610293 -52.43955088 -28.29870222 -48.013538 0.00000001 -7.77195665 0.00000021 0.00000006 -15.85308728 0.00000044 -0 0 -0 -10.14753669 -3.25393064 4.25672408 -0 0 0.59781394 -0 0 8.31562377 -0 0 0 -2.00897469 2.26383643 9.16184247 -0 0 0.02995745 -0 0 11.8462311 -0 0 0 -2.45813897 14.37290222 6.86437814 -0 0 0.89919715 -0 0 24.33826325 -0 0 0 -5.81737224 32.82999624 10.84903409 -0 0 0.40878842 -0 0 4.01615078 -0 0 0
26.49240112 23.57477722 16.94259491 84.28999659 -47.23530777 62.16204019 -52.44325354 -28.26322834 -47.9313823 0.00000001 -7.63149643 0.00000021 0.00000006 -15.80729537 0.00000043 -0 0 -0 -10.00676139 -3.17092257 4.2456053 -0 0 0.93116738 -0 0 7.98025423 -0 0 0 -1.86839523 2.33251992 9.16445724 -0 0 0.02179387 -0 0 11.88034008 -0 0 0 -2.32931609 14.44760819 6.95293317 -0 0 0.87004674 -0 0 24.26959481 -0 0 0 -5.71507208 32.85962014 10.87982391 -0 0 0.38828224 -0 0 4.01752235 -0 0 0
26.48692627 23.56101227 16.93922272 84.37250071 -47.07956707 62.09440461 -52.43451024 -28.23639417 -47.80177832 0.00000001 -7.59759792 0.0000002 0.00000006 -15.7559304 0.00000043 0 0 0 -9.96432737 -3.1191711 4.29925176 -0 0 1.00804251 -0 0 7.88705242 -0 0 0 -1.82547022 2.37642734 9.22613822 -0 0 0.0400149 -0 0 11.87602865 -0 0 0 -2.30303617 14.49459692 7.10938523 -0 0 0.84062755 -0 0 24.20030315 -0 0 0 -5.74678736 32.86180203 11.0029926 -0 0 0.36890116 -0 0 4.01654717 -0 0 0
26.49000244 23.53785553 16.93356781 84.39589355 -46.88670822 62.11598433 -52.46570999 -28.16828077 -47.72217434 0.00000001 -7.58736698 0.0000002 0.00000006 -15.70841823 0.00000043 -0 0 0 -9.97682167 -3.10223051 4.18629606 -0 0 1.05026527 -0 0 7.82414712 -0 0 0 -1.82420802 2.37015291 9.15860364 -0 0 0.11545719 -0 0 11.78991566 -0 0 0 -2.28176318 14.47538187 7.12120131 -0 0 0.80752444 -0 0 24.12838968 -0 0 0 -5.71993622 32.81032734 10.94556516 -0 0 0.34421335 -0 0 4.00901388 -0 0 0
26.48837891 23.52195892 16.92859039 84.40845369 -46.82290156 62.0852564 -52.49216887 -28.1070508 -47.65200763 0.00000001 -7.54024025 0.0000002 0.00000006 -15.65571783 0.00000043 0 0 0 -9.91312109 -3.07328555 4.11643086 -0 0 1.13787858 -0 0 7.7120077 -0 0 0 -1.74657039 2.38701289 9.12403697 -0 0 0.0663109 -0 0 11.84289241 -0 0 0 -2.18464479 14.48398895 7.16938366 -0 0 0.77737978 -0 0 24.05973175 -0 0 0 -5.60636086 32.76982523 10.89448903 -0 0 0.31884119 -0 0 4.00350372 -0 0 0
26.49549866 23.50081635 16.9217514 84.42490364 -46.73149727 62.11235959 -52.53362307 -28.02529006 -47.59729534 0.00000001 -7.54150564 0.0000002 0.00000006 -15.60646506 0.00000043 0 -0 -0 -9.91804713 -3.06356635 3.9930187 -0 0 1.03367854 -0 0 7.80791158 -0 0 0 -1.72791711 2.3737368 9.02190426 -0 0 0.03266002 -0 0 11.88254568 -0 0 0 -2.13178695 14.46834029 7.14703748 -0 0 0.7387927 -0 0 23.99591265 -0 0 0 -5.51163121 32.72393793 10.76230648 -0 0 0.29796929 -0 0 3.99402458 -0 0 0
26.49851685 23.48449554 16.91553345 84.44528124 -46.64392128 62.03710414 -52.55374861 -27.96459015 -47.50257406 0.00000001 -7.57813257 0.0000002 0.00000006 -15.54376272 0.00000043 -0 0 0 -9.94127753 -3.06084523 4.00016899 -0 0 1.0605506 -0 0 7.77233709 -0 0 0 -1.74945797 2.36204024 9.03000439 -0 0 0.00505676 -0 0 11.91111956 -0 0 0 -2.15174992 14.45567028 7.24685113 -0 0 0.69254056 -0 0 23.92412737 -0 0 0 -5.54347262 32.70438829 10.77663097 -0 0 0.2806639 -0 0 3.98291912 -0 0 0
26.50500183 23.47423096 16.90882721 84.46457482 -46.59399059 61.98114371 -52.55775575 -27.91897998 -47.39490292 0.00000001 -7.57393932 0.0000002 0.00000006 -15.48849946 0.00000043 -0 0 0 -9.93944701 -3.02395104 4.01541004 -0 0 1.05587199 -0 0 7.76070179 -0 0 0 -1.75385982 2.38333855 9.0459331 -0 0 0.02550327 -0 0 11.88789168 -0 0 0 -2.1615382 14.46939067 7.34912885 -0 0 0.63653929 -0 0 23.85504561 -0 0 0 -5.57604164 32.71632347 10.80545703 -0 0 0.26699085 -0 0 3.97307602 -0 0 0
26.51752625 23.45752258 16.90078583 84.4688694 -46.56736875 61.98237319 -52.55965939 -27.8772364 -47.30819544 0.00000001 -7.51713769 0.0000002 0.00000006 -15.43897892 0.00000042 -0 0 0 -9.90171006 -2.97953385 3.97340349 -0 0 1.10896994 -0 0 7.6952874 -0 0 0 -1.71905252 2.41534693 9.01519621 -0 0 0.03798607 -0 0 11.87343653 -0 0 0 -2.11980483 14.48732026 7.39642025 -0 0 0.58896187 -0 0 23.79394921 -0 0 0 -5.54080331 32.72058502 10.77583656 -0 0 0.25300026 -0 0 3.96299291 -0 0 0
26.52809448 23.43844299 16.88973083 84.49436164 -46.40446511 61.97922895 -52.57335731 -27.82454502 -47.2215781 0.00000001 -7.56944439 0.0000002 0.00000006 -15.39038722 0.00000042 -0 0 0 -9.97055631 -2.99642519 3.95006655 -0 0 0.91631548 -0 0 7.85639798 -0 0 0 -1.794423 2.3864191 9.01415046 -0 0 0.05695423 -0 0 11.84584388 -0 0 0 -2.1923524 14.45515523 7.4743226 -0 0 0.54807659 -0 0 23.73937986 -0 0 0 -5.63160123 32.65168635 10.78285295 -0 0 0.23759254 -0 0 3.95139507 -0 0 0
26.54067688 23.41453247 16.87528687 84.52692301 -46.30502301 62.00238291 -52.58861029 -27.77421417 -47.14665423 0.00000001 -7.55073533 0.0000002 0.00000006 -15.32695499 0.00000042 0 0 0 -9.96384138 -2.98941277 3.92085922 -0 0 0.91755651 -0 0 7.81984261 -0 0 0 -1.79121954 2.38286224 8.99942569 -0 0 0.05114792 -0 0 11.8574731 -0 0 0 -2.1792613 14.45221166 7.53129488 -0 0 0.51989061 -0 0 23.6830177 -0 0 0 -5.6349652 32.59060751 10.77232098 -0 0 0.22405631 -0 0 3.94224107 -0 0 0
26.55229187 23.39748993 16.86285553 84.64494345 -46.12809377 62.05453693 -52.6235053 -27.70785559 -47.05623334 0.00000001 -7.58961061 0.0000002 0.00000006 -15.26701107 0.00000042 -0 0 -0 -10.04960439 -2.98681527 3.90526262 -0 0 1.07052669 -0 0 7.64753971 -0 0 0 -1.87706916 2.37043118 9.00982773 -0 0 0.10422771 -0 0 11.8011738 -0 0 0 -2.26388646 14.44854898 7.61317945 -0 0 0.49284353 -0 0 23.62798204 -0 0 0 -5.73254054 32.51088685 10.78745194 -0 0 0.20951093 -0 0 3.93634713 -0 0 0
26.55609436 23.39514618 16.85540314 84.81158682 -46.04793053 62.03087106 -52.633442 -27.66996607 -46.90091097 0.00000001 -7.576632 0.0000002 0.00000006 -15.20503834 0.00000042 -0 0 -0 -10.06806624 -2.9396912 4.00116899 -0 0 1.10268245 -0 0 7.59076906 -0 0 0 -1.89860964 2.41260505 9.10637327 -0 0 0.09018472 -0 0 11.81499107 -0 0 0 -2.30438138 14.48853921 7.78275934 -0 0 0.47098866 -0 0 23.57852416 -0 0 0 -5.8110047 32.46458207 10.90070495 -0 0 0.20054358 -0 0 3.93837002 -0 0 0
26.55450745 23.39273682 16.84854279 84.90233838 -46.01083541 61.89349738 -52.60006591 -27.67422542 -46.70096025 0.00000001 -7.54284474 0.0000002 0.00000006 -15.15616204 0.00000042 0 -0 0 -10.0330225 -2.92164292 4.1503629 -0 0 1.01724784 -0 0 7.64960098 -0 0 0 -1.87613877 2.43312409 9.25048314 -0 0 0.09752528 -0 0 11.80617589 -0 0 0 -2.29864674 14.494534 7.989059 -0 0 0.45117577 -0 0 23.53168827 -0 0 0 -5.86490631 32.39455249 11.06754795 -0 0 0.19144238 -0 0 3.93959502 -0 0 0
26.55583496 23.38625488 16.84092102 85.00115988 -46.00491606 61.78787707 -52.54904928 -27.69442278 -46.49023242 0.00000001 -7.45456266 0.0000002 0.00000005 -15.10641497 0.00000041 -0 0 -0 -9.97972558 -2.8603204 4.27839854 -0 0 0.96969718 -0 0 7.67061596 -0 0 0 -1.84133964 2.4893961 9.38238846 -0 0 0.12526364 -0 0 11.77036995 -0 0 0 -2.27834309 14.540528 8.17539503 -0 0 0.42512197 -0 0 23.49205332 -0 0 0 -5.90144598 32.3781288 11.21635488 -0 0 0.18109342 -0 0 3.93313698 -0 0 0
26.55515747 23.37866821 16.83483276 84.9976347 -45.88331448 61.6498792 -52.50589446 -27.70642614 -46.3236913 0.00000001 -7.49042644 0.0000002 0.00000005 -15.05295223 0.00000041 0 0 -0 -9.99961219 -2.89749715 4.34993646 -0 0 0.90574758 -0 0 7.70264375 -0 0 0 -1.8708238 2.44863715 9.47374057 -0 0 0.11597853 -0 0 11.77066576 -0 0 0 -2.32240471 14.4914127 8.32146869 -0 0 0.40025349 -0 0 23.45345925 -0 0 0 -5.9940251 32.26019481 11.31488006 -0 0 0.16921088 -0 0 3.92517 -0 0 0
26.56568604 23.36021423 16.82432098 85.1060273 -45.65572905 61.64369185 -52.50816667 -27.67320709 -46.17829768 0.00000001 -7.59005966 0.0000002 0.00000005 -15.00385359 0.00000041 -0 -0 -0 -10.14860495 -2.91233173 4.36482383 -0 0 0.89296009 -0 0 7.69987649 -0 0 0 -2.02545848 2.43345272 9.50383338 -0 0 0.08571255 -0 0 11.80111789 -0 0 0 -2.47962332 14.45834582 8.40760722 -0 0 0.38104117 -0 0 23.42065718 -0 0 0 -6.16504461 32.16722154 11.34686153 -0 0 0.16306403 -0 0 3.9234522 -0 0 0
26.56714172 23.34046783 16.8134613 85.16475025 -45.46000029 61.55618434 -52.50325715 -27.6504338 -46.03987079 0.00000001 -7.66612018 0.00000021 0.00000005 -14.95428573 0.00000041 0 -0 0 -10.22496457 -2.97050039 4.44172101 -0 0 1.21177231 -0 0 7.34997557 -0 0 0 -2.11082823 2.3872204 9.58920901 -0 0 0.11563481 -0 0 11.76320288 -0 0 0 -2.57766937 14.40332327 8.53525965 -0 0 0.37454477 -0 0 23.38708224 -0 0 0 -6.29268508 32.08441525 11.43446144 -0 0 0.15842046 -0 0 3.93021722 -0 0 0
26.60313416 23.31996002 16.79425507 85.6109339 -45.0902295 61.91131914 -52.61171323 -27.52318838 -45.88802059 0.00000001 -7.73378921 0.00000021 0.00000005 -14.91453024 0.00000041 -0 -0 -0 -10.5588493 -2.83916121 4.40509936 -0 0 1.20739262 -0 0 7.32575982 -0 0 0 -2.45000886 2.51099827 9.54159528 -0 0 0.15813108 -0 0 11.71033875 -0 0 0 -2.90043469 14.52363428 8.5158749 -0 0 0.37993148 -0 0 23.35235133 -0 0 0 -6.61899822 32.22371707 11.38766103 -0 0 0.15310191 -0 0 3.93379024 -0 0 0
26.61408386 23.28927307 16.77916565 85.62782353 -44.81013531 61.93119853 -52.69503655 -27.43468122 -45.82074816 0.00000001 -7.80301569 0.00000021 0.00000005 -14.81837551 0.00000041 -0 -0 -0 -10.63183758 -2.92677174 4.3908493 -0 0 1.49909312 -0 0 6.98924957 -0 0 0 -2.52808664 2.4216924 9.5369373 -0 0 0.17810423 -0 0 11.68111647 -0 0 0 -2.97502584 14.4355913 8.524677 -0 0 0.38733138 -0 0 23.32252756 -0 0 0 -6.70470424 32.12779447 11.35455976 -0 0 0.14611502 -0 0 3.94802408 -0 0 0
26.62932739 23.23051453 16.76439819 85.62913316 -44.5988741 62.07613401 -52.78184633 -27.34974028 -45.84630303 0.00000001 -7.74971409 0.00000021 0.00000005 -14.75757354 0.0000004 -0 -0 -0 -10.61469989 -2.96453633 4.25378934 -0 0 1.43642255 -0 0 7.01083612 -0 0 0 -2.51071939 2.36310787 9.40511698 -0 0 0.18438448 -0 0 11.66272294 -0 0 0 -2.92044134 14.37525615 8.40146865 -0 0 0.39575035 -0 0 23.29472788 -0 0 0 -6.61240825 32.06565544 11.1842556 -0 0 0.14326595 -0 0 3.96383773 -0 0 0
